<?xml version="1.0" encoding="iso-8859-1"?>
<!-- Generator: Adobe Illustrator 19.0.0, SVG Export Plug-In . SVG Version: 6.00 Build 0)  -->
<svg version="1.1" id="Capa_1" xmlns="http://www.w3.org/2000/svg" xmlns:xlink="http://www.w3.org/1999/xlink" x="0px" y="0px"
	 viewBox="0 0 512.001 512.001" style="enable-background:new 0 0 512.001 512.001;" xml:space="preserve">
<path style="fill:#707487;" d="M481.301,0H30.7c-9.614,0-17.48,7.865-17.48,17.48c0,16.102,0,306.307,0,314.942h485.56
	c0-8.731,0-299.269,0-314.942C498.781,7.865,490.915,0,481.301,0z"/>
<path style="fill:#5E6377;" d="M33.74,17.48C33.74,7.865,41.605,0,51.219,0H30.7c-9.614,0-17.48,7.865-17.48,17.48
	c0,16.102,0,306.307,0,314.942h20.52C33.74,323.69,33.74,33.152,33.74,17.48z"/>
<path style="fill:#00C3FF;" d="M452.497,39.222H59.504c-5.72,0-10.356,4.637-10.356,10.356c0,11.432,0,270.16,0,279.633h62.018
	h289.669h62.018c0-9.473,0-268.2,0-279.633C462.853,43.858,458.217,39.222,452.497,39.222z"/>
<path style="fill:#00AAF0;" d="M69.754,49.578c0-5.719,4.636-10.355,10.355-10.355H59.504c-5.72,0-10.355,4.636-10.355,10.355
	c0,11.432,0,270.159,0,279.633h20.605C69.754,319.736,69.754,61.009,69.754,49.578z"/>
<rect x="215.097" y="201.896" style="fill:#9E6B57;" width="38.586" height="127.874"/>
<rect x="215.097" y="201.896" style="fill:#8C5A4B;" width="20.605" height="127.874"/>
<path style="fill:#E4EAF8;" d="M329.168,75.8c-2.458,0-4.45,1.992-4.45,4.45v250.467h37.888h37.888V80.251
	c0-2.458-1.992-4.45-4.45-4.45C394.446,75.8,328.047,75.8,329.168,75.8z"/>
<path style="fill:#D8DCE5;" d="M349.772,75.8h-20.605c-2.458,0-4.45,1.993-4.45,4.45v250.468h20.605V80.251
	C345.322,77.792,347.315,75.8,349.772,75.8z"/>
<path style="fill:#E4EAF8;" d="M215.098,201.893l34.054-72.221c1.481-3.141,5.95-3.141,7.431,0l34.054,72.221H215.098z"/>
<path style="fill:#D8DCE5;" d="M256.583,129.672c-1.481-3.141-5.95-3.141-7.431,0l-34.054,72.222h20.605l27.467-58.253
	L256.583,129.672z"/>
<path style="fill:#707487;" d="M249.151,129.672l-20.095,42.618h47.621l-20.095-42.618
	C255.102,126.53,250.633,126.53,249.151,129.672z"/>
<path style="fill:#5E6377;" d="M249.672,128.85c-0.196,0.247-0.376,0.514-0.521,0.821l-20.095,42.618h20.605l13.508-28.649
	l-6.587-13.969C255.246,126.837,251.484,126.569,249.672,128.85z"/>
<rect x="129.375" y="229.407" style="fill:#E4EAF8;" width="41.221" height="41.221"/>
<rect x="129.375" y="229.407" style="fill:#D8DCE5;" width="20.611" height="41.221"/>
<path style="fill:#008CFF;" d="M179.046,329.644l1.917-50.777c0.237-6.279-4.789-11.498-11.073-11.498h-39.805
	c-6.283,0-11.309,5.219-11.072,11.498l1.917,50.777H179.046z"/>
<path style="fill:#0385DD;" d="M150.695,267.368h-20.611c-6.283,0-11.309,5.219-11.072,11.498l1.917,50.777h20.611l-1.917-50.777
	C139.386,272.588,144.412,267.368,150.695,267.368z"/>
<g>
	<path style="fill:#D8DCE5;" d="M372.379,228.75c0,4.293,3.48,7.773,7.773,7.773h20.343v-15.545h-20.343
		C375.859,220.978,372.379,224.457,372.379,228.75z"/>
	<path style="fill:#D8DCE5;" d="M400.495,271.961h-20.343c-4.293,0-7.773,3.48-7.773,7.773c0,4.293,3.48,7.773,7.773,7.773h20.343
		L400.495,271.961L400.495,271.961z"/>
	<path style="fill:#D8DCE5;" d="M372.379,126.784c0,4.293,3.48,7.773,7.773,7.773h20.343v-15.545h-20.343
		C375.859,119.011,372.379,122.491,372.379,126.784z"/>
	<path style="fill:#D8DCE5;" d="M372.379,177.767c0,4.293,3.48,7.773,7.773,7.773h20.343v-15.545h-20.343
		C375.859,169.994,372.379,173.474,372.379,177.767z"/>
</g>
<path style="fill:#FFC850;" d="M192.274,164.237l-40.56-59.522c-0.926-1.36-2.931-1.36-3.858,0l-40.559,59.521
	c-1.783,2.617-1.466,6.129,0.758,8.384l19.324,19.596c1.17,1.187,1.827,2.787,1.827,4.454v10.968h41.161V196.67
	c0-1.667,0.656-3.266,1.826-4.453l19.324-19.596C193.741,170.367,194.058,166.854,192.274,164.237z"/>
<path style="fill:#F9B428;" d="M147.983,192.217l-19.324-19.596c-2.223-2.255-2.541-5.767-0.758-8.384l32.187-47.233l-8.373-12.288
	c-0.927-1.36-2.931-1.36-3.858,0l-40.559,59.522c-1.783,2.617-1.466,6.129,0.758,8.384l19.324,19.596
	c1.17,1.187,1.827,2.787,1.827,4.454v10.968h20.605v-10.968C149.81,195.004,149.153,193.404,147.983,192.217z"/>
<path style="fill:#E59F23;" d="M151.714,104.716c-0.926-1.36-2.931-1.36-3.858,0l-4.542,6.666v49.143h-0.357
	c-3.574,0-6.471,2.897-6.471,6.471c0,3.574,2.897,6.471,6.471,6.471h13.253c3.574,0,6.471-2.897,6.471-6.471
	c0-3.558-2.872-6.443-6.424-6.469v-49.145L151.714,104.716z"/>
<path style="fill:#D8DCE5;" d="M176.969,207.445h-54.367c-4.619,0-8.399,3.78-8.399,8.399v7.436c0,4.619,3.779,8.399,8.399,8.399
	h54.367c4.619,0,8.399-3.78,8.399-8.399v-7.436C185.368,211.226,181.588,207.445,176.969,207.445z"/>
<path style="fill:#C3C8D1;" d="M176.969,215.197h-54.367c-2.955,0-5.561-1.551-7.059-3.875c-0.843,1.309-1.34,2.86-1.34,4.524v7.436
	c0,4.619,3.779,8.399,8.399,8.399h54.367c4.619,0,8.399-3.78,8.399-8.399v-7.436c0-1.664-0.496-3.215-1.34-4.524
	C182.53,213.646,179.924,215.197,176.969,215.197z"/>
<rect x="252.868" y="201.896" style="fill:#AD7B64;" width="37.769" height="127.874"/>
<rect x="205.787" y="408.133" style="fill:#D8DCE5;" width="95.833" height="66.582"/>
<rect x="205.787" y="408.133" style="fill:#C3C8D1;" width="20.605" height="66.582"/>
<path style="fill:#E4EAF8;" d="M334.593,472.475H172.812c-8.123,0-14.707,6.584-14.707,14.707v10.111
	c0,8.122,6.585,14.707,14.707,14.707h161.781c8.122,0,14.707-6.584,14.707-14.707v-10.111
	C349.3,479.059,342.716,472.475,334.593,472.475z"/>
<path style="fill:#D8DCE5;" d="M334.593,491.395H172.812c-6.272,0-11.612-3.932-13.727-9.46c-0.624,1.631-0.981,3.395-0.981,5.246
	v10.111c0,8.122,6.585,14.707,14.707,14.707h161.781c8.122,0,14.707-6.584,14.707-14.707v-10.111c0-1.851-0.357-3.615-0.981-5.246
	C346.205,487.463,340.865,491.395,334.593,491.395z"/>
<path style="fill:#E4EAF8;" d="M400.835,329.21H111.166H13.221v66.022c0,9.614,7.866,17.481,17.48,17.481
	c10.969,0,437.825,0,450.6,0c9.614,0,17.48-7.867,17.48-17.481V329.21H400.835z"/>
<g>
	<path style="fill:#D8DCE5;" d="M33.749,395.232V329.21H13.22v66.022c0,9.613,7.866,17.481,17.48,17.481h20.529
		C41.615,412.713,33.749,404.846,33.749,395.232z"/>
	<path style="fill:#D8DCE5;" d="M258.299,379.022h-4.596c-4.452,0-8.06-3.608-8.06-8.06c0-4.452,3.609-8.06,8.06-8.06h4.596
		c4.452,0,8.06,3.608,8.06,8.06C266.359,375.414,262.751,379.022,258.299,379.022z"/>
</g>
<g>
</g>
<g>
</g>
<g>
</g>
<g>
</g>
<g>
</g>
<g>
</g>
<g>
</g>
<g>
</g>
<g>
</g>
<g>
</g>
<g>
</g>
<g>
</g>
<g>
</g>
<g>
</g>
<g>
</g>
</svg>
